<svg width="24" height="24" viewBox="0 0 24 24" xmlns="http://www.w3.org/2000/svg"><title>hack</title><g fill="#fff" fill-rule="evenodd"><path d="M21.698 18.196C21.946 16.685 22 14.721 22 12c0-2.716-.063-4.673-.324-6.181-.245-1.442-.619-2.125-1.019-2.521-.403-.397-1.093-.761-2.534-.996C16.621 2.053 14.678 2 12 2c-2.678 0-4.621.053-6.123.302-1.441.235-2.131.599-2.534.996-.4.396-.774 1.079-1.019 2.521C2.063 7.327 2 9.284 2 12c0 2.721.053 4.685.302 6.196.235 1.45.6 2.127.987 2.515.388.387 1.065.752 2.515.987C7.315 21.947 9.279 22 12 22c2.721 0 4.685-.053 6.196-.302 1.45-.235 2.127-.6 2.515-.987.387-.388.752-1.065.987-2.515zM12 24c11 0 12-1 12-12S22.831 0 12 0 0 1 0 12s1 12 12 12z"/><path d="M10.48 4.23c-.283-.973-1.677-.973-1.96 0-.327 1.12-.655 1.754-1.095 2.195-.44.44-1.076.768-2.196 1.094-.972.284-.972 1.678 0 1.962 1.12.326 1.755.654 2.196 1.094.44.44.768 1.076 1.094 2.196.284.972 1.678.972 1.962 0 .326-1.12.654-1.755 1.094-2.196.44-.44 1.076-.768 2.196-1.094.972-.284.972-1.678 0-1.962-1.12-.326-1.755-.654-2.196-1.094-.44-.44-.768-1.076-1.094-2.196zM8.562 7.56a4.84 4.84 0 0 0 .939-1.357c.25.52.551.97.939 1.357.387.388.837.688 1.357.939-.52.25-.97.551-1.357.939a4.865 4.865 0 0 0-.939 1.357c-.25-.52-.551-.97-.939-1.357A4.854 4.854 0 0 0 7.204 8.5c.52-.25.97-.551 1.357-.939zm.784 11.211a.956.956 0 0 0 1.352-.124c.251-.296.501-.6.752-.905h.001c1.088-1.32 2.208-2.677 3.551-3.705 1.424 1.09 2.563 2.484 3.694 3.868l.001.001c.203.248.405.495.609.741a.956.956 0 0 0 1.352.124.979.979 0 0 0 .122-1.36c-.216-.26-.432-.525-.651-.792l-.007-.009c-1.239-1.514-2.533-3.095-4.108-4.22-.299-.212-.637-.395-1.012-.395s-.713.183-1.012.394c-1.581 1.13-2.909 2.754-4.163 4.287l-.604.735a.968.968 0 0 0 .123 1.36zm-.545-2.606a.779.779 0 0 0-.024-1.072c-.231-.23-.483-.464-.763-.704-.299-.21-.637-.394-1.012-.394s-.728.171-1.012.394C4.549 15.524 4 16.473 3.223 17.411a.968.968 0 0 0 .123 1.36.956.956 0 0 0 1.352-.124c.802-1.152 1.292-1.652 2.304-2.61l.254.242c.42.401 1.161.321 1.545-.114z"/></g></svg>